# xmcd
#
# Track frame offsets: 
#        150
#        14135
#        35294
#        47624
#        59584
#        71913
#        82385
#        95205
#        106543
#        120846
#        134146
#        146591
#        163451
#        172825
#        192249
#        202773
#        216414
#
# Disc length: 3034 seconds
#
# Revision: 0
# Processed by: cddbd v1.5.2PL0 Copyright (c) Steve Scherf et al.
# Submitted via: ExactAudioCopy v1.0b1
#
DISCID=040bd811
DTITLE=Various Artist - 50 Country Hits CD2
DYEAR=1900
DGENRE=Country
TTITLE0=John Denver - Take Me Home Country Roads
TTITLE1=Olivia Newton-John - If Not For You
TTITLE2=Charlie Rich - Behind Closed Doors
TTITLE3=Tammy Wynette - Stand By Your Man
TTITLE4=Bobby Bare - Green Green Grass Of Home
TTITLE5=Floyd Cramer - San Antonio Rose
TTITLE6=Billie Joe Spears - Dallas
TTITLE7=Willie Nelson - Country Willie
TTITLE8=Emmylou Harris - High Powered Love
TTITLE9=Gordon Lightfoot - Long Way Back Home
TTITLE10=Frankie Laine - Moonlight Gambler
TTITLE11=Linda Ronstadt - I'm Gonna Love You
TTITLE12=Frank Ifield - I Remember You
TTITLE13=Tanya Tucker - Delta Dawn
TTITLE14=The Kendalls - Heaven's Just A Sin Away
TTITLE15=Conway Twitty - You've Never Been This Far Before
TTITLE16=Sonny James - Young Love
EXTD=
EXTT0=
EXTT1=
EXTT2=
EXTT3=
EXTT4=
EXTT5=
EXTT6=
EXTT7=
EXTT8=
EXTT9=
EXTT10=
EXTT11=
EXTT12=
EXTT13=
EXTT14=
EXTT15=
EXTT16=
PLAYORDER=
